<svg width="100" height="100" viewBox="0 0 100 100" fill="none" xmlns="http://www.w3.org/2000/svg">
<g clip-path="url(#clip0_218_858)">
<path d="M50 0C77.6 0 100 22.4 100 50C100 77.7 77.7 100 50 100C22.3 100 0 77.6 0 49.9C0 22.3 22.4 0 50 0ZM28.2 10.4C28 10.5 27.8 10.6 27.7 10.7C21.4 14.3 16.3 19.2 12.3 25.2C12.1 25.4 12.2 25.9 12.3 26.2C19.7 41.3 27.2 56.3 34.7 71.3C34.9 71.7 35.3 72.1 35.6 72.5C35.9 72.1 36.2 71.7 36.4 71.2C39.1 64.9 41.9 58.7 44.6 52.4C45 51.6 45.5 51.2 46.4 51.3C48.8 51.3 51.1 51.4 53.5 51.3C54.6 51.3 55.1 51.7 55.5 52.7C58.2 59.1 61 65.4 63.8 71.8C63.9 72.1 64.2 72.3 64.4 72.6C64.6 72.4 64.9 72.2 65 71.9C65.6 70.7 66.2 69.6 66.8 68.4C73.7 54.4 80.7 40.4 87.6 26.4C87.8 25.9 87.8 25.6 87.5 25.1C84.7 20.9 81.3 17.2 77.3 14.2C75.5 12.9 73.7 11.7 71.8 10.4C71.2 11.7 70.7 12.9 70.2 14C65.3 25 60.3 36 55.4 47C55 47.7 54.5 48 53.6 48C51.2 47.9 48.8 47.9 46.4 48C45.4 48 44.9 47.6 44.5 46.8C40.7 38.3 36.9 29.8 33.1 21.4C31.5 17.7 29.9 14.1 28.2 10.4ZM7.7 34.3C1.7 49.5 4.5 71.5 22.2 85.6C39.4 99.2 63.5 98.5 79.9 83.9C96.5 69.1 97.8 47.8 92.4 34.4C92.3 34.6 92.2 34.8 92.1 35C83.6 52 75.2 69 66.7 86.1C66.4 86.7 66.1 87.4 65.7 88C65 89.1 63.7 89 63 87.9C62.9 87.7 62.7 87.4 62.6 87.2C59.2 79.7 55.9 72.1 52.5 64.6C51.9 63.2 51.2 61.7 50.6 60.3C50.5 60.1 50.3 59.9 50.1 59.7C49.9 59.9 49.7 60.1 49.5 60.3C49.4 60.4 49.4 60.5 49.4 60.6C46.1 68 42.8 75.3 39.6 82.7C38.9 84.3 38.1 86 37.4 87.6C37.1 88.2 36.7 88.7 35.9 88.7C35.1 88.7 34.7 88.3 34.3 87.7C34.2 87.6 34.1 87.4 34.1 87.3C26.4 71.8 18.7 56.3 11 40.8C9.8 38.6 8.8 36.5 7.7 34.3ZM35.3 7.2C35.5 7.6 35.6 7.9 35.7 8.2C39.4 16.5 43.1 24.8 46.8 33.2C47.7 35.1 48.5 37 49.4 39C49.5 39.3 49.8 39.5 50 39.8C50.2 39.5 50.4 39.3 50.6 39V38.9C54.6 29.9 58.6 21 62.6 12C63.3 10.5 64 8.9 64.7 7.3C54.9 3.8 45.1 3.9 35.3 7.2Z" fill="white"/>
</g>
<defs>
<clipPath id="clip0_218_858">
<rect width="100" height="100" fill="white"/>
</clipPath>
</defs>
</svg>
