<?xml version="1.0" encoding="utf-8"?>
<!-- Generator: Adobe Illustrator 27.5.0, SVG Export Plug-In . SVG Version: 6.00 Build 0)  -->
<svg version="1.1" id="Layer_1" xmlns="http://www.w3.org/2000/svg" xmlns:xlink="http://www.w3.org/1999/xlink" x="0px" y="0px"
	 viewBox="0 0 130 130" style="enable-background:new 0 0 130 130;" xml:space="preserve">
<style type="text/css">
	.st0{fill:#FFFFFF;}
</style>
<path class="st0" d="M128.1,37h-24.3c-0.8,0-1.4,0.6-1.4,1.4v81.9c0,0.8,0.6,1.4,1.4,1.4h24.3c0.8,0,1.4-0.6,1.4-1.4V38.4
	C129.5,37.6,128.9,37,128.1,37z M121.9,95.6l-9.1,13.3c-0.1,0.1-0.2,0-0.1-0.1l2.7-9.6H110c-0.1,0-0.1-0.1-0.1-0.1l9.1-13.3
	c0.1-0.1,0.2,0,0.1,0.1l-2.7,9.6h5.4C121.9,95.5,122,95.5,121.9,95.6z M124.9,73.9h-18V41.6h18V73.9z"/>
</svg>
