<?xml version="1.0" encoding="utf-8"?>
<!-- Generator: Adobe Illustrator 27.5.0, SVG Export Plug-In . SVG Version: 6.00 Build 0)  -->
<svg version="1.1" id="Layer_1" xmlns="http://www.w3.org/2000/svg" xmlns:xlink="http://www.w3.org/1999/xlink" x="0px" y="0px"
	 viewBox="0 0 130 130" style="enable-background:new 0 0 130 130;" xml:space="preserve">
<style type="text/css">
	.st0{fill:#FFFFFF;}
	.st1{fill:none;stroke:#FFFFFF;stroke-width:4;stroke-miterlimit:10;}
</style>
<path class="st0" d="M127.76,16.44H97.53c-0.96,0-1.74,0.78-1.74,1.74V119.9c0,0.96,0.78,1.74,1.74,1.74h30.24
	c0.96,0,1.74-0.78,1.74-1.74V18.18C129.5,17.22,128.72,16.44,127.76,16.44z M120.11,89.21l-11.26,16.53
	c-0.06,0.09-0.21,0.03-0.18-0.08L112,93.68h-6.74c-0.08,0-0.13-0.09-0.08-0.16L116.44,77c0.06-0.09,0.21-0.03,0.18,0.08l-3.33,11.97
	h6.74C120.11,89.06,120.16,89.15,120.11,89.21z M123.83,62.29h-22.37V22.12h22.37V62.29z"/>
<path class="st1" d="M95.79,40.23H49.71c-3.64,0-6.58,2.95-6.58,6.58V56.9"/>
<path class="st0" d="M48.79,60.4H37.46v-1.5c0-2.52,2.04-4.57,4.57-4.57h2.21c2.52,0,4.57,2.04,4.57,4.57v1.5H48.79z"/>
<path class="st0" d="M82.3,85.14c-0.05-0.61-0.48-1.12-1.08-1.26l-5.85-1.36l-5.74-22.41c-0.16-0.62-0.72-1.05-1.36-1.05H17.96
	c-0.64,0-1.2,0.43-1.36,1.05l-5.74,22.41l-5.85,1.36c-0.6,0.14-1.03,0.65-1.08,1.26L2.3,107.09c-0.06,0.81,0.58,1.5,1.4,1.5h7.42
	v10.12c0,1.66,1.34,3,3,3h4.48c1.66,0,3-1.34,3-3v-10.12h43.02v10.12c0,1.66,1.34,3,3,3h4.48c1.66,0,3-1.34,3-3v-10.12h7.42
	c0.81,0,1.46-0.69,1.4-1.5L82.3,85.14z M16.34,82.25l4.3-18.34c0.05-0.23,0.25-0.39,0.49-0.39h44.01c0.23,0,0.43,0.16,0.49,0.39
	l4.3,18.34c0.07,0.31-0.16,0.61-0.49,0.61h-52.6C16.5,82.87,16.26,82.57,16.34,82.25z M23.4,100.72c0,0.55-0.45,1-1,1H10.25
	c-0.55,0-1-0.45-1-1v-5.3c0-0.55,0.45-1,1-1H22.4c0.55,0,1,0.45,1,1V100.72z M77,100.72c0,0.55-0.45,1-1,1H63.85c-0.55,0-1-0.45-1-1
	v-5.3c0-0.55,0.45-1,1-1H76c0.55,0,1,0.45,1,1V100.72z"/>
</svg>
