<svg width="130" height="130" viewBox="0 0 130 130" fill="none" xmlns="http://www.w3.org/2000/svg">
<path d="M105.574 91.4246L84.2844 90.2105L65.3543 72.4458C64.5772 71.7201 63.564 71.3154 62.5093 71.3154H32.657C31.3108 71.3154 30.034 71.9713 29.2568 73.0877L17.0161 90.4757L2.31893 91.4107C1.59726 91.4525 1.04213 92.0386 1.01437 92.7643L0.500872 109.761C0.473116 110.543 1.11152 111.199 1.88871 111.199H14.4902C14.4902 117.172 19.306 122 25.2321 122C31.1581 122 35.9739 117.158 35.9739 111.199H70.8918C70.8918 117.172 75.7076 122 81.6336 122C87.5597 122 92.3755 117.158 92.3755 111.199H106.67C107.475 111.199 108.113 110.515 108.058 109.706L106.864 92.7224C106.809 92.0247 106.254 91.4665 105.56 91.4246H105.574ZM25.2459 116.599C22.276 116.599 19.875 114.185 19.875 111.199C19.875 108.212 22.276 105.798 25.2459 105.798C28.2159 105.798 30.6169 108.212 30.6169 111.199C30.6169 114.185 28.2159 116.599 25.2459 116.599ZM24.1496 90.4896C23.5944 90.4896 23.2613 89.8477 23.5805 89.3872L32.7819 76.1578C33.1982 75.5717 33.8644 75.2228 34.5722 75.2228H61.3851C61.9403 75.2228 62.4815 75.4322 62.8979 75.8229L77.0815 89.2755C77.5395 89.7081 77.2342 90.4757 76.6097 90.4757H24.1496V90.4896ZM81.6475 116.599C78.6775 116.599 76.2766 114.185 76.2766 111.199C76.2766 108.212 78.6775 105.798 81.6475 105.798C84.6175 105.798 87.0184 108.212 87.0184 111.199C87.0184 114.185 84.6175 116.599 81.6475 116.599Z" fill="white"/>
</svg>
