<?xml version="1.0" encoding="utf-8"?>
<!-- Generator: Adobe Illustrator 27.5.0, SVG Export Plug-In . SVG Version: 6.00 Build 0)  -->
<svg version="1.1" id="Layer_1" xmlns="http://www.w3.org/2000/svg" xmlns:xlink="http://www.w3.org/1999/xlink" x="0px" y="0px"
	 viewBox="0 0 37.79 46.51" style="enable-background:new 0 0 37.79 46.51;" xml:space="preserve">
<style type="text/css">
	.st0{fill:#FFFFFF;}
</style>
<g>
	<g>
		<path class="st0" d="M31.94,45.01h-17.4c-0.87,0-1.45-0.58-1.45-1.45c0-2.18-1.02-3.48-2.61-5.51c-0.87-1.02-1.89-2.32-2.9-3.92
			c-2.76-4.35-5.22-9.57-5.8-11.46c-0.58-1.89-0.15-3.19,0.44-3.92c0.58-0.87,1.74-1.31,3.05-1.31c1.74,0,3.48,1.45,5.08,3.34V5.85
			c0-2.47,1.89-4.35,4.35-4.35c2.47,0,4.35,1.89,4.35,4.35v6.09c0.44-0.15,0.87-0.29,1.45-0.29c1.6,0,2.9,0.87,3.63,2.03
			c0.58-0.44,1.31-0.58,2.03-0.58c2.03,0,3.63,1.31,4.21,3.19c0.44-0.15,1.02-0.29,1.6-0.29c2.47,0,4.35,1.89,4.35,4.35v4.35
			c0,3.77-0.73,6.82-1.45,9.72s-1.45,5.66-1.45,9.14C33.39,44.43,32.81,45.01,31.94,45.01z"/>
		<path d="M31.94,46.51h-17.4c-1.71,0-2.95-1.24-2.95-2.95c0-1.6-0.7-2.56-2.29-4.58c-1.06-1.24-2.08-2.61-2.99-4.04
			c-2.67-4.22-5.29-9.62-5.97-11.82c-0.86-2.81,0.14-4.57,0.66-5.24c0.84-1.22,2.39-1.92,4.26-1.92c1.17,0,2.35,0.44,3.58,1.33V5.85
			C8.83,2.57,11.4,0,14.68,0c3.28,0,5.85,2.57,5.85,5.85v4.3c1.52,0.01,2.94,0.62,4,1.67c0.49-0.15,1.03-0.22,1.61-0.22
			c2.16,0,4.04,1.12,5.08,2.95c0.25-0.03,0.49-0.05,0.72-0.05c3.28,0,5.85,2.57,5.85,5.85v4.35c0,4.1-0.83,7.42-1.5,10.08
			l-0.08,0.33c-0.68,2.72-1.32,5.28-1.32,8.45C34.89,45.27,33.65,46.51,31.94,46.51z M14.58,43.51l17.3,0
			c0.02-3.54,0.73-6.38,1.42-9.13l0.08-0.32c0.63-2.51,1.41-5.62,1.41-9.35v-4.35c0-1.63-1.23-2.85-2.85-2.85
			c-0.31,0-0.7,0.07-1.12,0.21c-0.38,0.13-0.8,0.1-1.16-0.09c-0.36-0.19-0.63-0.51-0.75-0.89c-0.4-1.32-1.47-2.13-2.77-2.13
			c-0.5,0-0.88,0.09-1.13,0.28c-0.34,0.25-0.76,0.35-1.17,0.27c-0.41-0.08-0.77-0.32-1-0.68c-0.52-0.83-1.4-1.33-2.35-1.33
			c-0.34,0-0.61,0.09-0.97,0.21c-0.46,0.15-0.96,0.08-1.35-0.21c-0.39-0.28-0.62-0.73-0.62-1.22V5.85c0-1.62-1.23-2.85-2.85-2.85
			c-1.63,0-2.85,1.23-2.85,2.85v14.94c0,0.63-0.39,1.19-0.98,1.41c-0.59,0.21-1.25,0.04-1.66-0.44c-1.96-2.32-3.22-2.8-3.93-2.8
			c-0.85,0-1.54,0.24-1.8,0.64c-0.02,0.04-0.05,0.07-0.08,0.1c-0.21,0.26-0.64,1.02-0.17,2.54c0.55,1.79,2.96,6.87,5.63,11.1
			c0.83,1.3,1.76,2.56,2.77,3.74C13.28,39.19,14.57,40.83,14.58,43.51z M32,43.51L32,43.51L32,43.51z"/>
	</g>
	<path d="M31.94,45.01h-17.4c-0.87,0-1.45-0.58-1.45-1.45c0-2.18-1.02-3.48-2.61-5.51c-0.87-1.02-1.89-2.32-2.9-3.92
		c-2.76-4.35-5.22-9.57-5.8-11.46c-0.58-1.89-0.15-3.19,0.44-3.92c0.58-0.87,1.74-1.31,3.05-1.31c1.74,0,3.48,1.45,5.08,3.34V5.85
		c0-2.47,1.89-4.35,4.35-4.35c2.47,0,4.35,1.89,4.35,4.35v6.09c0.44-0.15,0.87-0.29,1.45-0.29c1.6,0,2.9,0.87,3.63,2.03
		c0.58-0.44,1.31-0.58,2.03-0.58c2.03,0,3.63,1.31,4.21,3.19c0.44-0.15,1.02-0.29,1.6-0.29c2.47,0,4.35,1.89,4.35,4.35v4.35
		c0,3.77-0.73,6.82-1.45,9.72s-1.45,5.66-1.45,9.14C33.39,44.43,32.81,45.01,31.94,45.01z M15.84,42.11h14.65
		c0.15-3.19,0.87-5.8,1.45-8.41c0.73-2.9,1.45-5.66,1.45-8.99v-4.35c0-0.87-0.58-1.45-1.45-1.45c-0.87,0-1.45,0.58-1.45,1.45v1.45
		c0,0.87-0.58,1.45-1.45,1.45c-0.87,0-1.45-0.58-1.45-1.45v-4.35c0-0.87-0.58-1.45-1.45-1.45c-0.87,0-1.45,0.58-1.45,1.45v2.9
		c0,0.87-0.58,1.45-1.45,1.45c-0.87,0-1.45-0.58-1.45-1.45V16c0-0.87-0.58-1.45-1.45-1.45c-0.87,0-1.45,0.58-1.45,1.45v2.9
		c0,0.87-0.58,1.45-1.45,1.45c-0.87,0-1.45-0.58-1.45-1.45V5.85c0-0.87-0.58-1.45-1.45-1.45c-0.87,0-1.45,0.58-1.45,1.45v21.76
		c0,0.87-0.58,1.45-1.45,1.45c-0.87,0-1.45-0.58-1.45-1.45v-1.16c-1.31-3.34-4.06-6.09-5.08-6.09c-0.29,0-0.58,0-0.73,0.15
		c-0.15,0.15-0.15,0.58,0,1.31c0.44,1.6,2.61,6.24,5.51,10.88c0.87,1.45,1.74,2.47,2.61,3.63C14.1,38.05,15.55,39.64,15.84,42.11z"
		/>
</g>
</svg>
