<svg width="143" height="24" viewBox="0 0 143 24" fill="none" xmlns="http://www.w3.org/2000/svg">
<g clip-path="url(#clip0_218_1524)">
<path d="M16.965 0.8L10.7147 18.4H6.25027L0 0.8V0.5H3.96843L8.53211 14.5H8.63132L13.0958 0.5H17.0642V0.8H16.965ZM22.7192 18.8C18.4532 18.8 16.0721 15.8 16.0721 12.1C16.0721 8.4 18.354 5.4 22.7192 5.4C27.0845 5.4 29.3663 8.5 29.3663 12.1C29.3663 15.7 27.0845 18.8 22.7192 18.8ZM22.7192 15.9C24.6042 15.9 25.7948 14.6 25.7948 12.1C25.7948 9.6 24.6042 8.3 22.7192 8.3C20.8342 8.3 19.6437 9.6 19.6437 12.1C19.6437 14.6 20.9334 15.9 22.7192 15.9ZM35.319 0V15.6C35.319 16 35.319 16.1 35.7158 16.1H37.1048V18.5C36.4103 18.6 35.7158 18.7 35.0214 18.7C32.6403 18.7 31.7474 17.5 31.7474 15V0H35.319ZM42.7598 12.5V18.4H39.1882V0H42.7598V11.4H42.859L47.2243 5.7H51.0935V6L46.3314 11.9L51.2919 18.2V18.5H47.3235L42.7598 12.5ZM53.3753 15C54.6651 15.7 55.9548 16 57.443 16.1C58.8319 16.1 59.4272 15.7 59.4272 14.9C59.4272 14.1 58.8319 13.8 57.7406 13.6L56.054 13.2C54.2682 12.8 52.6808 11.8 52.6808 9.5C52.6808 7 54.6651 5.4 57.939 5.4C59.5264 5.4 61.1137 5.7 62.6019 6.3L61.709 8.8C60.5185 8.3 59.328 8.1 58.0382 8C56.7485 8 56.1532 8.4 56.1532 9.2C56.1532 10 56.7485 10.2 57.7406 10.5L59.328 10.9C61.3122 11.4 62.8995 12.4 62.8995 14.7C62.8995 17.3 60.8161 18.9 57.6414 18.9C55.8556 18.9 54.0698 18.5 52.4824 17.7L53.3753 15ZM85.0235 6L81.2535 18.4H77.3843L74.5072 9.3H74.408L71.5309 18.4H67.6616L64.0901 6V5.7H67.5624L69.8443 14.5H69.9435L72.6222 5.7H76.3922L79.0709 14.5H79.1701L81.4519 5.7H85.0235V6ZM97.4248 15.6C97.4248 16 97.4248 16.1 97.8217 16.1H98.7146V18.5C98.1193 18.6 97.524 18.7 96.9288 18.7C95.5398 18.7 94.8454 18.2 94.4485 17.2H94.3493C93.1588 18.1 91.7698 18.7 90.2817 18.8C87.5038 18.8 86.0156 17.1 86.0156 14.8C86.0156 12 87.8014 10.6 92.2659 10.6H93.9525V10C93.9525 8.4 92.5635 8.2 91.7698 8.2C90.2817 8.2 88.8927 8.5 87.603 9.1L86.8093 6.4C88.3967 5.7 90.1825 5.3 91.9682 5.3C95.639 5.3 97.3256 7.2 97.3256 10.4V15.6H97.4248ZM92.6627 12.9C90.3809 12.9 89.488 13.5 89.488 14.4C89.488 15.5 90.0832 15.9 91.1746 15.9C92.1667 15.9 93.1588 15.6 94.0517 15V12.8L92.6627 12.9ZM112.902 17.6C112.902 21.9 110.521 24 106.453 24C104.766 24 103.08 23.6 101.492 22.8L102.485 20.2C103.675 20.8 105.064 21.2 106.354 21.1C108.437 21.1 109.33 20.4 109.33 18.3V17.4H109.231C108.239 18.2 106.949 18.7 105.659 18.7C101.989 18.7 100.203 15.8 100.203 12.1C100.203 8.4 102.088 5.4 105.659 5.4C107.544 5.4 108.636 6.3 109.529 6.9H109.628L110.124 5.7H112.902V17.6ZM109.429 9C108.636 8.5 107.842 8.3 106.85 8.2C104.766 8.2 103.874 9.7 103.874 11.9C103.874 14.1 104.766 15.6 106.85 15.6C107.743 15.6 108.636 15.3 109.429 14.9V9ZM118.954 13.1C119.053 14.9 120.243 16 122.128 16C123.517 16 124.906 15.7 126.097 15.2L126.89 17.7C125.303 18.4 123.517 18.8 121.831 18.8C117.465 18.8 115.382 15.8 115.382 12C115.382 8.4 117.565 5.3 121.632 5.3C125.7 5.3 127.486 7.8 127.486 10.8C127.486 11.6 127.386 12.3 127.287 13.1H118.954ZM124.311 10.9C124.311 10.8 124.311 10.6 124.311 10.5C124.311 9.1 123.616 7.9 121.632 7.9C119.846 7.9 118.954 9.3 118.854 10.9H124.311ZM133.141 5.7L133.637 6.9H133.736C134.827 5.9 136.216 5.3 137.704 5.3C140.681 5.3 142.367 7.3 142.367 10.4V18.4H138.796V10.8C138.796 9.1 138.101 8.3 136.514 8.3C135.522 8.3 134.53 8.7 133.835 9.4V18.5H130.264V5.7H133.141Z" fill="white"/>
</g>
<defs>
<clipPath id="clip0_218_1524">
<rect width="142.268" height="24" fill="white"/>
</clipPath>
</defs>
</svg>
